<svg xmlns="http://www.w3.org/2000/svg" xmlns:xlink="http://www.w3.org/1999/xlink" width="865.76" height="682.89" viewBox="0 0 865.76 682.89"><defs><clipPath id="a"><path d="M298.84,59.06s-114,6.57-204.27,126.68c0,0-82,95.52-39.14,221.67,0,0,17.82,111.56,221.68,139,0,0,253.39,55.51,450.64-67.66,0,0,135.45-69.7,82.85-248.54,0,0-37.26-148.16-143.34-103,0,0-91.61,43.83-231.44-40.33C435.82,86.89,381.9,47.44,298.84,59.06Z" fill="none"/></clipPath></defs><path d="M298.84,59.06s-114,6.57-204.27,126.68c0,0-82,95.52-39.14,221.67,0,0,17.82,111.56,221.68,139,0,0,253.39,55.51,450.64-67.66,0,0,135.45-69.7,82.85-248.54,0,0-37.26-148.16-143.34-103,0,0-91.61,43.83-231.44-40.33C435.82,86.89,381.9,47.44,298.84,59.06Z" fill="#4bb3d4"/><path d="M298.84,59.06s-114,6.57-204.27,126.68c0,0-82,95.52-39.14,221.67,0,0,17.82,111.56,221.68,139,0,0,253.39,55.51,450.64-67.66,0,0,135.45-69.7,82.85-248.54,0,0-37.26-148.16-143.34-103,0,0-91.61,43.83-231.44-40.33C435.82,86.89,381.9,47.44,298.84,59.06Z" fill="#fff" opacity="0.7"/><g clip-path="url(#a)"><rect x="252.44" y="413.87" width="221.36" height="18.85" fill="#3f4347"/><rect x="376.49" y="271.33" width="18.09" height="59.91" fill="#233554"/><g opacity="0.2"><rect x="376.49" y="279.13" width="18.09" height="1.42" fill="#fff"/><rect x="376.49" y="288.7" width="18.09" height="2.13" fill="#fff"/><rect x="376.49" y="282.32" width="18.09" height="5.32" fill="#fff"/></g><g opacity="0.2"><rect x="376.49" y="313.16" width="18.09" height="1.42" fill="#fff"/><rect x="376.49" y="322.73" width="18.09" height="2.13" fill="#fff"/><rect x="376.49" y="316.35" width="18.09" height="5.32" fill="#fff"/></g><rect x="420.67" y="277.18" width="18.09" height="54.06" fill="#9ea0a3"/><g opacity="0.2"><rect x="420.67" y="284.22" width="18.09" height="1.28" fill="#fff"/><rect x="420.67" y="292.85" width="18.09" height="1.92" fill="#fff"/><rect x="420.67" y="287.1" width="18.09" height="4.8" fill="#fff"/></g><g opacity="0.2"><rect x="420.67" y="314.92" width="18.09" height="1.28" fill="#fff"/><rect x="420.67" y="323.56" width="18.09" height="1.92" fill="#fff"/><rect x="420.67" y="317.8" width="18.09" height="4.8" fill="#fff"/></g><rect x="438.76" y="277.18" width="14.09" height="54.06" fill="#233554"/><g opacity="0.2"><rect x="438.76" y="284.22" width="14.09" height="1.28"/><rect x="438.76" y="292.85" width="14.09" height="1.92"/><rect x="438.76" y="287.1" width="14.09" height="4.8"/></g><g opacity="0.2"><rect x="438.76" y="314.92" width="14.09" height="1.28"/><rect x="438.76" y="323.56" width="14.09" height="1.92"/><rect x="438.76" y="317.8" width="14.09" height="4.8"/></g><rect x="453.03" y="286.04" width="12" height="45.2" fill="#4bb3d4"/><rect x="453.03" y="291.93" width="12" height="1.07" fill="#fff"/><rect x="453.03" y="299.15" width="12" height="1.6" fill="#fff"/><rect x="453.03" y="294.33" width="12" height="4.01" fill="#fff"/><rect x="453.03" y="317.6" width="12" height="1.07" fill="#fff"/><rect x="453.03" y="324.82" width="12" height="1.6" fill="#fff"/><rect x="453.03" y="320.01" width="12" height="4.01" fill="#fff"/><rect x="394.58" y="270.09" width="16.18" height="61.15" fill="#9ea0a3"/><rect x="410.93" y="274.17" width="9.74" height="57.07" fill="#e1e1e2"/><rect x="394.58" y="278.05" width="16.18" height="1.45" fill="#fff" opacity="0.2"/><rect x="394.58" y="322.55" width="16.18" height="2.17" fill="#fff" opacity="0.2"/><rect x="410.93" y="281.61" width="9.74" height="1.06" fill="#fff" opacity="0.2"/><rect x="410.93" y="325.57" width="9.74" height="1.06" fill="#fff" opacity="0.2"/><rect x="469.63" y="95.85" width="19.73" height="365.58" fill="#3f4347"/><rect x="472.64" y="100.01" width="1" height="351.55" fill="#2e3135"/><rect x="476.15" y="100.01" width="1" height="351.55" fill="#2e3135"/><rect x="480.09" y="100.01" width="1" height="351.55" fill="#2e3135"/><rect x="484.47" y="100.01" width="1" height="351.55" fill="#2e3135"/><rect x="230.08" y="74.37" width="24.55" height="473.84" fill="#3f4347"/><rect x="234.18" y="85.55" width="1" height="457.19" fill="#2e3135"/><rect x="249.09" y="85.55" width="1" height="457.19" fill="#2e3135"/><rect x="239.88" y="85.55" width="1" height="165.69" fill="#2e3135"/><rect x="244.27" y="85.55" width="1" height="165.69" fill="#2e3135"/><rect x="239.88" y="332.77" width="1" height="209.53" fill="#2e3135"/><rect x="244.27" y="332.77" width="1" height="209.53" fill="#2e3135"/><path d="M477.35,455.73h4.29a10.79,10.79,0,0,1,10.79,10.79v8.94a0,0,0,0,1,0,0H466.56a0,0,0,0,1,0,0v-8.94a10.79,10.79,0,0,1,10.79-10.79Z" fill="#2e3135"/><rect x="252.65" y="142.75" width="218.29" height="16.66" fill="#3f4347"/><rect x="264.27" y="237.65" width="218.29" height="16.66" fill="#3f4347"/><rect x="253.09" y="331.24" width="218.29" height="16.66" fill="#3f4347"/><rect x="112.82" y="113.82" width="22.79" height="74.08" fill="#4bb3d4"/><g opacity="0.2"><rect x="112.82" y="123.47" width="22.79" height="1.75" fill="#fff"/><rect x="112.82" y="135.3" width="22.79" height="2.63" fill="#fff"/><rect x="112.82" y="127.41" width="22.79" height="6.58" fill="#fff"/></g><g opacity="0.2"><rect x="112.82" y="165.55" width="22.79" height="1.75" fill="#fff"/><rect x="112.82" y="177.38" width="22.79" height="2.63" fill="#fff"/><rect x="112.82" y="169.49" width="22.79" height="6.58" fill="#fff"/></g><rect x="168.49" y="121.05" width="22.79" height="66.85" fill="#233554"/><g opacity="0.2"><rect x="168.49" y="129.76" width="22.79" height="1.58" fill="#fff"/><rect x="168.49" y="140.44" width="22.79" height="2.37" fill="#fff"/><rect x="168.49" y="133.32" width="22.79" height="5.93" fill="#fff"/></g><g opacity="0.2"><rect x="168.49" y="167.73" width="22.79" height="1.58" fill="#fff"/><rect x="168.49" y="178.41" width="22.79" height="2.37" fill="#fff"/><rect x="168.49" y="171.29" width="22.79" height="5.93" fill="#fff"/></g><rect x="191.29" y="121.05" width="17.75" height="66.85" fill="#9ea0a3"/><g opacity="0.2"><rect x="191.29" y="129.76" width="17.75" height="1.58"/><rect x="191.29" y="140.44" width="17.75" height="2.37"/><rect x="191.29" y="133.32" width="17.75" height="5.93"/></g><g opacity="0.2"><rect x="191.29" y="167.73" width="17.75" height="1.58"/><rect x="191.29" y="178.41" width="17.75" height="2.37"/><rect x="191.29" y="171.29" width="17.75" height="5.93"/></g><rect x="209.26" y="132.01" width="15.12" height="55.89" fill="#4bb3d4"/><rect x="209.26" y="139.29" width="15.12" height="1.32" fill="#fff"/><rect x="209.26" y="148.22" width="15.12" height="1.98" fill="#fff"/><rect x="209.26" y="142.26" width="15.12" height="4.96" fill="#fff"/><rect x="209.26" y="171.04" width="15.12" height="1.32" fill="#fff"/><rect x="209.26" y="179.96" width="15.12" height="1.98" fill="#fff"/><rect x="209.26" y="174.01" width="15.12" height="4.96" fill="#fff"/><rect x="135.62" y="112.29" width="20.38" height="75.61" fill="#e1e1e2"/><rect x="156.22" y="117.33" width="12.27" height="70.57" fill="#4bb3d4"/><rect x="135.62" y="122.13" width="20.38" height="1.79" fill="#fff" opacity="0.2"/><rect x="135.62" y="177.16" width="20.38" height="2.68" fill="#fff" opacity="0.2"/><rect x="156.22" y="126.53" width="12.27" height="1.32" fill="#fff" opacity="0.2"/><rect x="156.22" y="180.89" width="12.27" height="1.32" fill="#fff" opacity="0.2"/><rect x="352.82" y="68.82" width="22.79" height="74.08" fill="#4bb3d4"/><g opacity="0.2"><rect x="352.82" y="78.47" width="22.79" height="1.75" fill="#fff"/><rect x="352.82" y="90.3" width="22.79" height="2.63" fill="#fff"/><rect x="352.82" y="82.41" width="22.79" height="6.58" fill="#fff"/></g><g opacity="0.2"><rect x="352.82" y="120.55" width="22.79" height="1.75" fill="#fff"/><rect x="352.82" y="132.38" width="22.79" height="2.63" fill="#fff"/><rect x="352.82" y="124.49" width="22.79" height="6.58" fill="#fff"/></g><rect x="408.49" y="76.05" width="22.79" height="66.85" fill="#233554"/><g opacity="0.2"><rect x="408.49" y="84.76" width="22.79" height="1.58" fill="#fff"/><rect x="408.49" y="95.44" width="22.79" height="2.37" fill="#fff"/><rect x="408.49" y="88.32" width="22.79" height="5.93" fill="#fff"/></g><g opacity="0.2"><rect x="408.49" y="122.73" width="22.79" height="1.58" fill="#fff"/><rect x="408.49" y="133.41" width="22.79" height="2.37" fill="#fff"/><rect x="408.49" y="126.29" width="22.79" height="5.93" fill="#fff"/></g><rect x="431.29" y="76.05" width="17.75" height="66.85" fill="#9ea0a3"/><g opacity="0.2"><rect x="431.29" y="84.76" width="17.75" height="1.58"/><rect x="431.29" y="95.44" width="17.75" height="2.37"/><rect x="431.29" y="88.32" width="17.75" height="5.93"/></g><g opacity="0.2"><rect x="431.29" y="122.73" width="17.75" height="1.58"/><rect x="431.29" y="133.41" width="17.75" height="2.37"/><rect x="431.29" y="126.29" width="17.75" height="5.93"/></g><rect x="449.26" y="87.01" width="15.12" height="55.89" fill="#4bb3d4"/><rect x="449.26" y="94.29" width="15.12" height="1.32" fill="#fff"/><rect x="449.26" y="103.22" width="15.12" height="1.98" fill="#fff"/><rect x="449.26" y="97.26" width="15.12" height="4.96" fill="#fff"/><rect x="449.26" y="126.04" width="15.12" height="1.32" fill="#fff"/><rect x="449.26" y="134.96" width="15.12" height="1.98" fill="#fff"/><rect x="449.26" y="129.01" width="15.12" height="4.96" fill="#fff"/><rect x="375.62" y="67.29" width="20.38" height="75.61" fill="#e1e1e2"/><rect x="396.22" y="72.33" width="12.27" height="70.57" fill="#4bb3d4"/><rect x="375.62" y="77.13" width="20.38" height="1.79" fill="#fff" opacity="0.2"/><rect x="375.62" y="132.16" width="20.38" height="2.68" fill="#fff" opacity="0.2"/><rect x="396.22" y="81.53" width="12.27" height="1.32" fill="#fff" opacity="0.2"/><rect x="396.22" y="135.89" width="12.27" height="1.32" fill="#fff" opacity="0.2"/><rect x="100.82" y="328.82" width="22.79" height="74.08" fill="#4bb3d4"/><g opacity="0.2"><rect x="100.82" y="338.47" width="22.79" height="1.75" fill="#fff"/><rect x="100.82" y="350.3" width="22.79" height="2.63" fill="#fff"/><rect x="100.82" y="342.41" width="22.79" height="6.58" fill="#fff"/></g><g opacity="0.2"><rect x="100.82" y="380.55" width="22.79" height="1.75" fill="#fff"/><rect x="100.82" y="392.38" width="22.79" height="2.63" fill="#fff"/><rect x="100.82" y="384.49" width="22.79" height="6.58" fill="#fff"/></g><rect x="156.49" y="336.05" width="22.79" height="66.85" fill="#233554"/><g opacity="0.2"><rect x="156.49" y="344.76" width="22.79" height="1.58" fill="#fff"/><rect x="156.49" y="355.44" width="22.79" height="2.37" fill="#fff"/><rect x="156.49" y="348.32" width="22.79" height="5.93" fill="#fff"/></g><g opacity="0.2"><rect x="156.49" y="382.73" width="22.79" height="1.58" fill="#fff"/><rect x="156.49" y="393.41" width="22.79" height="2.37" fill="#fff"/><rect x="156.49" y="386.29" width="22.79" height="5.93" fill="#fff"/></g><rect x="179.29" y="336.05" width="17.75" height="66.85" fill="#9ea0a3"/><g opacity="0.2"><rect x="179.29" y="344.76" width="17.75" height="1.58"/><rect x="179.29" y="355.44" width="17.75" height="2.37"/><rect x="179.29" y="348.32" width="17.75" height="5.93"/></g><g opacity="0.2"><rect x="179.29" y="382.73" width="17.75" height="1.58"/><rect x="179.29" y="393.41" width="17.75" height="2.37"/><rect x="179.29" y="386.29" width="17.75" height="5.93"/></g><rect x="197.26" y="347.01" width="15.12" height="55.89" fill="#4bb3d4"/><rect x="197.26" y="354.29" width="15.12" height="1.32" fill="#fff"/><rect x="197.26" y="363.22" width="15.12" height="1.98" fill="#fff"/><rect x="197.26" y="357.26" width="15.12" height="4.96" fill="#fff"/><rect x="197.26" y="386.04" width="15.12" height="1.32" fill="#fff"/><rect x="197.26" y="394.96" width="15.12" height="1.98" fill="#fff"/><rect x="197.26" y="389.01" width="15.12" height="4.96" fill="#fff"/><rect x="123.62" y="327.29" width="20.38" height="75.61" fill="#e1e1e2"/><rect x="144.22" y="332.33" width="12.27" height="70.57" fill="#4bb3d4"/><rect x="123.62" y="337.13" width="20.38" height="1.79" fill="#fff" opacity="0.2"/><rect x="123.62" y="392.16" width="20.38" height="2.68" fill="#fff" opacity="0.2"/><rect x="144.22" y="341.53" width="12.27" height="1.32" fill="#fff" opacity="0.2"/><rect x="144.22" y="395.89" width="12.27" height="1.32" fill="#fff" opacity="0.2"/><rect x="97.82" y="432.82" width="22.79" height="74.08" fill="#4bb3d4"/><g opacity="0.2"><rect x="97.82" y="442.47" width="22.79" height="1.75" fill="#fff"/><rect x="97.82" y="454.3" width="22.79" height="2.63" fill="#fff"/><rect x="97.82" y="446.41" width="22.79" height="6.58" fill="#fff"/></g><g opacity="0.2"><rect x="97.82" y="484.55" width="22.79" height="1.75" fill="#fff"/><rect x="97.82" y="496.38" width="22.79" height="2.63" fill="#fff"/><rect x="97.82" y="488.49" width="22.79" height="6.58" fill="#fff"/></g><rect x="153.49" y="440.05" width="22.79" height="66.85" fill="#233554"/><g opacity="0.2"><rect x="153.49" y="448.76" width="22.79" height="1.58" fill="#fff"/><rect x="153.49" y="459.44" width="22.79" height="2.37" fill="#fff"/><rect x="153.49" y="452.32" width="22.79" height="5.93" fill="#fff"/></g><g opacity="0.2"><rect x="153.49" y="486.73" width="22.79" height="1.58" fill="#fff"/><rect x="153.49" y="497.41" width="22.79" height="2.37" fill="#fff"/><rect x="153.49" y="490.29" width="22.79" height="5.93" fill="#fff"/></g><rect x="176.29" y="440.05" width="17.75" height="66.85" fill="#9ea0a3"/><g opacity="0.2"><rect x="176.29" y="448.76" width="17.75" height="1.58"/><rect x="176.29" y="459.44" width="17.75" height="2.37"/><rect x="176.29" y="452.32" width="17.75" height="5.93"/></g><g opacity="0.2"><rect x="176.29" y="486.73" width="17.75" height="1.58"/><rect x="176.29" y="497.41" width="17.75" height="2.37"/><rect x="176.29" y="490.29" width="17.75" height="5.93"/></g><rect x="194.26" y="451.01" width="15.12" height="55.89" fill="#4bb3d4"/><rect x="194.26" y="458.29" width="15.12" height="1.32" fill="#fff"/><rect x="194.26" y="467.22" width="15.12" height="1.98" fill="#fff"/><rect x="194.26" y="461.26" width="15.12" height="4.96" fill="#fff"/><rect x="194.26" y="490.04" width="15.12" height="1.32" fill="#fff"/><rect x="194.26" y="498.96" width="15.12" height="1.98" fill="#fff"/><rect x="194.26" y="493.01" width="15.12" height="4.96" fill="#fff"/><rect x="120.62" y="431.29" width="20.38" height="75.61" fill="#e1e1e2"/><rect x="141.22" y="436.33" width="12.27" height="70.57" fill="#4bb3d4"/><rect x="120.62" y="441.13" width="20.38" height="1.79" fill="#fff" opacity="0.2"/><rect x="120.62" y="496.16" width="20.38" height="2.68" fill="#fff" opacity="0.2"/><rect x="141.22" y="445.53" width="12.27" height="1.32" fill="#fff" opacity="0.2"/><rect x="141.22" y="499.89" width="12.27" height="1.32" fill="#fff" opacity="0.2"/><rect x="392.92" y="168.18" width="17.53" height="69.26" fill="#233554"/><rect x="392.92" y="227.79" width="17.53" height="3.07" fill="#fff"/><rect x="392.7" y="174.09" width="17.53" height="3.07" fill="#fff"/><circle cx="401.69" cy="203.46" r="5.48" fill="#fff"/><rect x="410.46" y="171.46" width="17.53" height="65.97" fill="#9ea0a3"/><rect x="410.46" y="228.25" width="17.53" height="2.92" fill="#fff"/><circle cx="419.22" cy="203.46" r="5.48" fill="#fff"/><rect x="427.99" y="175.41" width="17.53" height="62.03" fill="#233554"/><rect x="445.52" y="161.38" width="19.07" height="76.27" fill="#4bb3d4"/><rect x="445.52" y="169.72" width="19.07" height="2.18" fill="#fff"/><rect x="445.52" y="183.31" width="19.07" height="2.18" fill="#fff"/><rect x="445.52" y="173.89" width="19.07" height="7.44" fill="#fff"/><rect x="445.52" y="213.56" width="19.07" height="2.18" fill="#fff"/><rect x="445.52" y="227.14" width="19.07" height="2.18" fill="#fff"/><rect x="445.52" y="217.72" width="19.07" height="7.44" fill="#fff"/><rect x="427.99" y="228.25" width="17.53" height="2.92" fill="#fff"/><circle cx="436.76" cy="203.46" r="5.48" fill="#fff"/><rect x="314.02" y="220.34" width="55.23" height="16.66" fill="#e1e1e2"/><rect x="359.61" y="220.34" width="1.75" height="16.66" fill="#fff"/><rect x="321.04" y="220.34" width="1.75" height="16.66" fill="#fff"/><circle cx="337.69" cy="228.67" r="4.82" fill="#fff"/><rect x="70.74" y="187.9" width="164.38" height="17.1" fill="#3f4347"/><rect x="34.36" y="294.42" width="198.57" height="17.53" fill="#3f4347"/><rect x="34.36" y="401.37" width="198.57" height="17.53" fill="#3f4347"/><rect x="34.36" y="507.45" width="198.57" height="17.53" fill="#3f4347"/><rect x="374.45" y="354.14" width="18.09" height="59.91" fill="#233554"/><g opacity="0.2"><rect x="374.45" y="361.94" width="18.09" height="1.42" fill="#fff"/><rect x="374.45" y="371.51" width="18.09" height="2.13" fill="#fff"/><rect x="374.45" y="365.13" width="18.09" height="5.32" fill="#fff"/></g><g opacity="0.2"><rect x="374.45" y="395.97" width="18.09" height="1.42" fill="#fff"/><rect x="374.45" y="405.54" width="18.09" height="2.13" fill="#fff"/><rect x="374.45" y="399.16" width="18.09" height="5.32" fill="#fff"/></g><rect x="418.63" y="359.99" width="18.09" height="54.06" fill="#9ea0a3"/><g opacity="0.2"><rect x="418.63" y="367.03" width="18.09" height="1.28" fill="#fff"/><rect x="418.63" y="375.67" width="18.09" height="1.92" fill="#fff"/><rect x="418.63" y="369.91" width="18.09" height="4.8" fill="#fff"/></g><g opacity="0.2"><rect x="418.63" y="397.74" width="18.09" height="1.28" fill="#fff"/><rect x="418.63" y="406.37" width="18.09" height="1.92" fill="#fff"/><rect x="418.63" y="400.62" width="18.09" height="4.8" fill="#fff"/></g><rect x="436.72" y="359.99" width="14.09" height="54.06" fill="#233554"/><g opacity="0.2"><rect x="436.72" y="367.03" width="14.09" height="1.28"/><rect x="436.72" y="375.67" width="14.09" height="1.92"/><rect x="436.72" y="369.91" width="14.09" height="4.8"/></g><g opacity="0.2"><rect x="436.72" y="397.74" width="14.09" height="1.28"/><rect x="436.72" y="406.37" width="14.09" height="1.92"/><rect x="436.72" y="400.62" width="14.09" height="4.8"/></g><rect x="450.99" y="368.85" width="12" height="45.2" fill="#4bb3d4"/><rect x="450.99" y="374.74" width="12" height="1.07" fill="#fff"/><rect x="450.99" y="381.96" width="12" height="1.6" fill="#fff"/><rect x="450.99" y="377.14" width="12" height="4.01" fill="#fff"/><rect x="450.99" y="400.41" width="12" height="1.07" fill="#fff"/><rect x="450.99" y="407.63" width="12" height="1.6" fill="#fff"/><rect x="450.99" y="402.82" width="12" height="4.01" fill="#fff"/><rect x="392.54" y="352.9" width="16.18" height="61.15" fill="#4bb3d4"/><rect x="408.89" y="356.98" width="9.74" height="57.07" fill="#e1e1e2"/><rect x="392.54" y="360.86" width="16.18" height="1.45" fill="#fff" opacity="0.2"/><rect x="392.54" y="405.37" width="16.18" height="2.17" fill="#fff" opacity="0.2"/><rect x="408.89" y="364.42" width="9.74" height="1.06" fill="#fff" opacity="0.2"/><rect x="408.89" y="408.38" width="9.74" height="1.06" fill="#fff" opacity="0.2"/><rect x="226.14" y="52.89" width="32.44" height="25.42" rx="9.46" fill="#2e3135"/></g><path d="M324.16,615.75a31.15,31.15,0,0,0-1.08,10.68c-1.75,1.1-2.87,4.66-2.87,4.66-1.48,3.22-4.1,3.08-6.09,2.34a7.2,7.2,0,0,1-3.51-2.87,12.54,12.54,0,0,0-2.31-2.66l-.78-26.75,7.43,5c.7.31,1.38.57,2,.81,4,1.47,7.09,1.88,9.52,1.59A25.25,25.25,0,0,1,324.16,615.75Z" fill="#f9b499"/><path d="M279.46,644.54a5.18,5.18,0,0,0-.67,4.08,2.59,2.59,0,0,0,2.5,1.76h18.94a2.61,2.61,0,0,0,2.43-1.58,4.52,4.52,0,0,0-.67-4.12Z" fill="#233554"/><rect x="282.95" y="603.92" width="15.78" height="30.25" fill="#f9b499"/><path d="M283,603.92l0,4.75s6.57,7.32,15.8,6.54l0-11.29Z" fill="#f7a48b"/><path d="M363.12,366s0,2.51-.16,6.84c-.47,16.81-2.24,61.14-8.16,92.52,0,0-8.75,52.16-12.25,80.22,0,0-5.69,32.87-7.44,50.41,0,0,.78,11.39-8.61,12.48-2.43.29-5.54-.12-9.52-1.59-.65-.24-1.33-.5-2-.81l-7.43-5-.46-.3s-4.95,14.85-28.07,4.53A3.87,3.87,0,0,1,276.7,602c-.68-14.65-4.33-95.18-4-138.87.11-12.27.52-21.64,1.41-25.82l19.7-62.43S346.05,375,363.12,366Z" fill="#233554"/><path d="M327.18,425.94l-10.2,181c-.65-.24-1.33-.5-2-.81l-7.89-5.25Z" opacity="0.2"/><path d="M363.12,366s0,2.51-.16,6.84c-18.41,7.19-45.43,9.24-45.43,9.24-19.73,2.2-23.92,20.08-23.92,20.08,1.94,19.64-6.32,28.58-6.32,28.58C282,436,282,441.3,282,441.3c-.77,11.41-5.54,18.21-9.3,21.87.11-12.27.52-21.64,1.41-25.82l19.7-62.43S346.05,375,363.12,366Z" opacity="0.2"/><path d="M313.8,221s-13.15,3.06-19.28-4.39l1.75-13.15,4,.74L315.12,207a28.28,28.28,0,0,0-1.85,9.36A17.4,17.4,0,0,0,313.8,221Z" fill="#f9b499"/><path d="M315.12,207a28.28,28.28,0,0,0-1.85,9.36c-3.13-1-12.76-4.37-13.49-10.24l.47-1.89Z" fill="#f7a48b"/><path d="M651.59,647.48s-38.82.78-39.89,0C606.88,644,617,637,617,637c5.26-4.39,3.64-8.57,3.64-8.57l0-.15a8.7,8.7,0,0,0,2.91,0s2.39.08,6,.53A74.22,74.22,0,0,1,647.21,633a7.58,7.58,0,0,0,2.42,1.12l0,.12C653.9,639.43,651.59,647.48,651.59,647.48Z" fill="#233554"/><path d="M505.19,646.64s-2.2-12.28,14-14.47c0,0,14.46-1.76,16.22-4.39l32.84,6.81s1.35,6.77.48,12Z" fill="#233554"/><path d="M682.75,332.52s-11.48,113.32-14.1,172.93-11.8,119.23-11.8,119.23c-.85,9.37-4.65,10.1-7.22,9.45a7.58,7.58,0,0,1-2.42-1.12,74.22,74.22,0,0,0-17.69-4.28c-3.6-.45-6-.53-6-.53a8.7,8.7,0,0,1-2.91,0c-8.8-1.44-1.47-19.78-1.47-19.78,4.38-6.14,2.62-14,2.62-14l.07-35.07v0L622.16,402,595.89,525.19a380.65,380.65,0,0,1-7.36,37.6c-6.32,24.91-12.34,34.73-12.34,34.73-1.75,14.47-5.26,15.79-5.26,15.79-5.7,6.57-2.19,16.22-2.19,16.22,1.6,15.25-16.41,8.16-26.42,3.1-3.81-1.91-6.45-3.54-6.45-3.54-1.76-6.13,2.18-18,2.18-18,3.51-5.7-.87-8.33-.87-8.33-4.83-3.06.87-15.78.87-15.78,4.82-14.46,17.51-100.38,17.51-100.38,8.6-44.22,17-129.89,19.31-153.83.39-4.07.6-6.35.6-6.35l55-11.67Z" fill="#4bb3d4"/><path d="M682.75,332.52c-6,12.5-28.6,16.45-28.6,16.45-17.09-.44-20.16,15.34-20.16,15.34L622.16,402c-9.79-34.06-37.86-60.92-47.29-69.21.39-4.07.6-6.35.6-6.35l55-11.67Z" opacity="0.2"/><path d="M719.89,298.54c-4.13,4-11.83,4.39-11.83,4.39-14.91,1.32-21.48,1.76-21.48,1.76l1.32,18c1.76,25.86-74.95,17.55-74.95,17.55-17.54,0-35.51-11.83-35.51-11.83-9.21-4.82-2.64-21-2.64-21,3.94-23.67-.88-41.64-.88-41.64A87.21,87.21,0,0,1,555.51,296c-2.18,1.79-5.36,2.54-9.17,2.52-18.61-.09-52.48-18.41-61.11-23.25a1.63,1.63,0,0,1-.29-2.63c6.41-5.95,8.39-15.2,9-19.28a1.62,1.62,0,0,1,2.2-1.28l16,6.24c13.15-3.51,15.78.43,15.78.43,6.57,5.7,10.08,2.19,10.08,2.19,4.82-21,30.23-85.48,30.23-85.48,7.88-21.92,44.7-18.86,44.7-18.86l37.7,2.62c6.57,1.75,18.85,3.06,18.85,3.06,27.61,3.5,34.64,34.62,34.64,34.62,10.52,23.67,21,67.5,21,67.5C730.85,290.21,719.89,298.54,719.89,298.54Z" fill="#233554"/><path d="M573.92,265.7A87.21,87.21,0,0,1,555.51,296c-2.18,1.79-5.36,2.54-9.17,2.52,1.54-.71,5.32-3.11,3.91-9.09,0,0-4.82-8.33,1.75-11.4,0,0,8.77-4,11.39-18.41,0,0-.45-56.55,7-60.49,0,0,4.82-1.76,3.08,28.49,0,0,0,8.76,1.75,14.9C575.22,242.47,577,257.37,573.92,265.7Z" opacity="0.2"/><path d="M657.92,277.4l33.47-5.59,1.31-24.55-7-18.84s-12.27-5.7-15.33,18.41c0,0,0,13.15-12.27,14.91,0,0-14.47.88-21.92-2.63,0,0-14.47-11.83-15.78-4.82,0,0-2.63,2.63,7,11.4a16,16,0,0,1,1.32,11.83s-1.31,14.91,24.12,25.42c0,0,25.5,13,34.44,14.16l-.69-19.43Z" opacity="0.2"/><path d="M588.53,562.79c-6.32,24.91-12.34,34.73-12.34,34.73-1.75,14.47-5.26,15.79-5.26,15.79-5.7,6.57-2.19,16.22-2.19,16.22,1.6,15.25-16.41,8.16-26.42,3.1,7.73-.31,22.93-2.81,19-18,0,0,11.39-9.64,16.65-28.93l10.51-24.11Z" opacity="0.2"/><g opacity="0.2"><path d="M539.25,607.94c5.49,2.38,13.6,5.51,19,8a27.55,27.55,0,0,1-19-8Z"/></g><path d="M630.11,618.55s-2.8,3.5-.59,10.18c-3.6-.45-6-.53-6-.53-13.15,2.19-4.38-19.73-4.38-19.73,4.38-6.14,2.62-14,2.62-14l.07-35.07c.54,9.27,2.17,31.82,5.63,37.69C627.47,597.07,637.56,606.28,630.11,618.55Z" opacity="0.2"/><rect x="611.7" y="647.48" width="39.89" height="2.63" fill="#4bb3d4"/><rect x="505.19" y="646.63" width="63.56" height="3.51" fill="#4bb3d4"/><path d="M656.3,296.32,638.36,303a20.6,20.6,0,0,1-7.39.35,25,25,0,0,1-9.71-3.42c-6.13-2.63-5.7-5.7-5.7-5.7-3.5-1.75-3.94-7-3.94-7a13.47,13.47,0,0,1-5.7-6.57c.87-4.39,7,.43,7,.43,5.7,4,13.15,3.07,13.15,3.07l7.89-4.82c4.82-3.51-.44-3.07-.44-3.07-5.67.74-8,.23-9-.35a1.28,1.28,0,0,1-.46-1.62c1.87-4,14.62-3.67,19.43-3.42a8.48,8.48,0,0,1,3.39.92l11,5.66A34.38,34.38,0,0,1,656.3,296.32Z" fill="#f9b499"/><path d="M631,303.25l0,.05a25,25,0,0,1-9.71-3.42c-6.13-2.63-5.7-5.7-5.7-5.7-3.5-1.75-3.94-7-3.94-7s7.89,3.07,11.39,3.07c0,0,.44,4.38,3.07,6.57,0,0,0,3.07,2.2,3.95A4.19,4.19,0,0,0,631,303.25Z" fill="#f7a48b"/><path d="M278.53,438.23c-2.36,2.35-2.39,6.26-2.27,7.95a.52.52,0,0,1-.79.46,7.29,7.29,0,0,1-2.17-3.75.31.31,0,0,0-.61.06c-.59,6.53-2.05,5.8-2.05,5.8-3.07.44-3.51-6.57-3.51-6.57-3.51-1.32-3.51-3.95-3.51-3.95a7.23,7.23,0,0,1-3.51-5.7c-4.38-2.19-2.94-17.33-2.94-17.33l0-.15c4.06,3,15.66,11,24.35,12.25A24.68,24.68,0,0,1,278.53,438.23Z" fill="#f9b499"/><path d="M282.13,646.47a3.09,3.09,0,0,1-2.31-1.09c-.67-.82-.95-2.1.95-3.76,0,0,2.19-1.32,0-4,0,0-2.43-7.58,4.07-11.14a11.27,11.27,0,0,1,10.78-.15c2.35,1.28,4.76,3.68,5.75,8.22v8.77s3.07,3.94-4.82,3.5Z" fill="#4bb3d4"/><path d="M350,649.93l-45.15.45-.44-4.38s-.06-.78-.12-2c-.24-4.8-.57-16.57,1.87-17.27a4.93,4.93,0,0,1,2.11,1.19,12.54,12.54,0,0,1,2.31,2.66,7.2,7.2,0,0,0,3.51,2.87c2,.74,4.61.88,6.09-2.34,0,0,1.12-3.56,2.87-4.66a1.86,1.86,0,0,1,2.39.27s6.14,9.65,15.79,14.46c0,0,6.23.94,8.19,5.69A8.13,8.13,0,0,1,350,649.93Z" fill="#4bb3d4"/><path d="M350,649.93l-45.15.45-.44-4.38s-.06-.78-.12-2a43,43,0,0,0,16.34,4.64s21.46,1.5,28.79-1.77A8.13,8.13,0,0,1,350,649.93Z" fill="#233554"/><path d="M400.78,266.37a60.32,60.32,0,0,0,11.83-13.59l6.58-9.21s3.5,4-2.19,13.15c0,0,.88,2.63,8.33-.44l19.84-9.93a1.88,1.88,0,0,1,2.14.35h0a1.85,1.85,0,0,1-.37,2.9l-11.78,6.93a1.1,1.1,0,0,0-.32,1.62h0a1.1,1.1,0,0,0,1.41.31l11.46-6.09a2.1,2.1,0,0,1,2.76.74h0a2.09,2.09,0,0,1-.74,2.93l-12.4,7.09a1.4,1.4,0,0,0-.6,1.72h0a1.39,1.39,0,0,0,1.57.84l16.2-3.32a2,2,0,0,1,2.38,1.54h0a2,2,0,0,1-1.57,2.42l-18.46,3.77a1.25,1.25,0,0,0-1,1.23h0a1.24,1.24,0,0,0,1.17,1.24l10.45.68a1.59,1.59,0,0,1,1.43,2h0a1.59,1.59,0,0,1-1.55,1.15c-4.16,0-17.81,0-21.14,2.22,0,0-3.07,2.19-8.77,2.19,0,0-4.38.44-4.82,3.07L403,280Z" fill="#f9b499"/><path d="M417,256.72s0,7-2.63,10.09c0,0,4.62-2,6-9.1A3,3,0,0,1,417,256.72Z" fill="#f7a48b"/><path d="M612.9,141.2v15.35s-1.31,18,18.42,18.4c0,0,15.78-1.32,19.28-15.78a9.48,9.48,0,0,1-5.7-8.77L644,124.54Z" fill="#f9b499"/><path d="M612.9,141.2v15.35s20.93,1.5,26.46-18.54Z" fill="#f7a48b"/><rect x="599.74" y="74.57" width="43.4" height="72.76" rx="21.7" fill="#f9b499"/><path d="M605.87,79.84s-8.77,0-7.45,7c0,0,6.58,13.15,36.82,3.06,0,0-2.63,11.4,1.76,17.1,0,0-3.12,8.46,4.36,9.71l9.67,6.07-5.7,8.32s.88,7,7,3.51c0,0,3.5-2.63,2.62-12.27,0,0,4.39-1.32.88-9.21,0,0,11.83-6.14,2.62-15.34,0,0,1.75-15.78-12.71-12.27,0,0-.44-14-13.59-9.2,0,0-4.39-15.35-16.22-9.21,0,0-3.51,1.76-2.63,7.9C613.32,75,606.74,72,605.87,79.84Z" fill="#233554"/><ellipse cx="645.33" cy="122.79" rx="5.7" ry="8.33" fill="#f9b499"/><path d="M686.58,304.69c-9,1.93-22.53-1.1-29.07-2.85-1.81-.48-2.35-2.39-1.8-4.2,2.63-8.7,2.86-16.24,1.82-21.76a5,5,0,0,1,4.1-5.86c6.91-1.14,18.92-2.89,25.82-2.59l-9.66-36.82s.71-7,9.48-7L717.08,264,707,291.13Z" fill="#233554"/><path d="M557.24,203.9l9.65,7.89s2.63,2.63,6.14,0c0,0,3.5-4.83,19.72-.45,0,0,66.63,14.45,81.09,3l30.15-19,.1,1.47,3.66,8.8s-30,11.81-31.71,24.52c0,0,.88,8.33-11.83,9.21,0,0-39.45-4.37-72.33-17.08,0,0-20.17-8.32-20.61.88,0,0,1.45,11.91-4.17,8.88a5.77,5.77,0,0,1-2.49-2.76c-1.25-2.83-4.92-9.34-12.69-11.18Z" fill="#4bb3d4"/><path d="M493.84,252.87s-.76,9.77-6.28,16.8c0,0-.44-2.19-6.14-2.19a15,15,0,0,1-2.4-.11,51.76,51.76,0,0,1-12.5-3.32,6.65,6.65,0,0,0-2.68-.43c-3.19.13-11.28.24-17.48-1.83,0,0-2.2-2.63,5.25-1.76l3.95-.3a1.38,1.38,0,0,0,1.2-1.81,1.37,1.37,0,0,0-1.3-.93h0c-3.15,0-12.59,0-12.59-2.22,0,0-1.32-2.19,4.38-2.19h10.08s-20.6-7.45-18.85-11.83c0,0,.44-2.63,7.89.87,0,0,9.64,3.51,13.59,2.19,0,0-16.66-7.88-15.35-11.39,0,0-.43-3.51,7,0,0,0,17.1,10.51,25,7.88,0,0,.87-3.51-2.2-7.45,0,0-4.82-5.7,0-8.77a95.38,95.38,0,0,0,7.89,9.65,29.85,29.85,0,0,1,7,12.27s.63,4.64,3.73,6.48A5.39,5.39,0,0,0,493.84,252.87Z" fill="#f9b499"/><path d="M476.6,240.3s-2.62,1.94,1.76,8.52" fill="#f7a48b"/><path d="M493.84,252.87a31.66,31.66,0,0,1-6.28,16.8s-.44-2.19-6.14-2.19a15,15,0,0,1-2.4-.11c3.83-2.07,11.16-6.92,14-14.89A5.39,5.39,0,0,0,493.84,252.87Z" fill="#f7a48b"/><path d="M309.15,211.85h0a18.13,18.13,0,0,1-18.42-18.41v-20.6a18.39,18.39,0,0,1,18.4-18.41h0a18.41,18.41,0,0,1,18.42,18.4v20.61A18.41,18.41,0,0,1,309.15,211.85Z" fill="#f9b499"/><path d="M318.78,159.68s8.32-.44,8.77,13.15l-.18,10.83s4.12,2.32,7.19-.31c0,0,1.42-43.58-17.54-37.25-1.32.44-19.29-18-47.34,7.46,0,0-13.59,8.33-14.46,31.56,0,0-2.19,14-8.32,21,0,0,10.08-6.58,11-18.86,0,0,.88-14.46,6.14-15.78,0,0-7.89,14.47-.87,32.88,0,0,4.38,6.57-1.31,14.46,0,0-7.89,10.09-3.51,19.73,0,0,4.39-9.64,25.86-15.79a13.08,13.08,0,0,1,4.23-9.86A1.87,1.87,0,0,1,291,213a23.22,23.22,0,0,0,4.61,3.65s2.74-1.52,1.8-9.08a17.46,17.46,0,0,1-6.63-14.15l-.17-8.83a12,12,0,0,0,7.18-4.76l.44,4s10.64,0,11.37-11.74c0-.31,0-.62,0-.93C309.5,168.58,309.59,154.5,318.78,159.68Z" fill="#233554"/><path d="M269.69,202.22c3.48-.46,4.75-4.69,5.4-7.63l.35-2.24c.06-.85.22-2.33.22-3.17,0-.57,0-2.13,0-2.73l-.13-3.63c-.11-1.27-.34-4.22-.49-5.44-.43-6.17,2-12.23,5.72-17.06a38.59,38.59,0,0,1,6.5-6.4c1-.73,2-1.42,3-2.12-7.84,5.45-14.56,13.85-14.81,23.74a27.23,27.23,0,0,0,.22,3.61l.29,3.65a68.54,68.54,0,0,1,0,7.31c-.07.61-.18,2.14-.3,2.73s-.23,1.36-.31,1.81a22.78,22.78,0,0,1-1.1,3.49c-.88,1.86-2.32,4-4.56,4.08Z" opacity="0.2"/><path d="M272.28,227.06s16-16.4,12.16-33.33a6.92,6.92,0,0,0,6.26-.51,17.77,17.77,0,0,0,6.66,14.37s1.27,6-1.8,9.08a24.13,24.13,0,0,1-4.62-3.64,1.86,1.86,0,0,0-2.55-.1,12.82,12.82,0,0,0-4.23,9.88A100.67,100.67,0,0,0,272.28,227.06Z" opacity="0.2"/><path d="M292.86,183.76s4.07-3.75,4.07-13.83c0,0,.44-18.41,14.9-19.73,0,0-12.27,3.07-11.4,16.22,0,0,1.82,14.08-1.06,17.34l-1.19,0-.44-4A11.51,11.51,0,0,1,292.86,183.76Z" opacity="0.2"/><ellipse cx="287.22" cy="187.53" rx="6.58" ry="6.79" fill="#f9b499"/><path d="M380.18,339a13.77,13.77,0,0,1-5,4.46c-7,3.38-13.8-3.14-13.8-3.14,1.31,5.26,5.7,15.34,5.7,15.34,3.51,5.26,2.63,7,2.63,7-10.27,8.77-42.41,11.29-61.39,12-6.86.26-12,.29-13.77.29h-.67l-2.18,45.58c-1.11,6-5.14,7.51-10.12,6.8-8.69-1.23-20.29-9.27-24.35-12.25-.94-.69-1.48-1.11-1.48-1.11L257,385c2.63-22.36.43-50,.43-50-2.2-14.91-3.08-38.58-3.08-38.58,1.31-15.78,0-38.57,0-38.57-5.7-27.18,29.8-35.08,29.8-35.08,0-5.69,3-8.53,3-8.53,2.1-3.27,3.81-1.25,3.81-1.25a25.78,25.78,0,0,0,4.62,3.64,22.4,22.4,0,0,0,10.66,3.82,19.4,19.4,0,0,0,8.46-1.2c6.88-2.52,7.62,2.64,7.62,2.64,4.38,5.7,11.83,4.82,11.83,4.82,29.81,2.62,30.26,57.41,30.26,57.41.88,12.71,7,7,7,7,5.69-11.83,28.92-27.62,28.92-27.62C403.84,282,417,283.71,417,283.71,420.94,293.35,380.18,339,380.18,339Z" fill="#4bb3d4"/><path d="M287.13,214.28s7.12,19.93,34.29,13.79c0,0-13.69,12.42-49.14-1a95.53,95.53,0,0,1,11.88-4.25S283.54,218.9,287.13,214.28Z" fill="#fff" opacity="0.2"/><path d="M308.28,374.63c-6.86.26-12,.29-13.77.29-.36-5.65-1.24-15.43-3.29-23.05l-3.07-14.46a30.34,30.34,0,0,1,1.11-16.63,48,48,0,0,0,2.74-17c-.1-7.84-.32-17.95-.8-24.22a173.44,173.44,0,0,1,3.52,37.25S298.73,354.47,308.28,374.63Z" fill="#fff" opacity="0.2"/><path d="M316.63,315.48s14-7,18.85-19.73C335.48,295.75,335.92,313.29,316.63,315.48Z" fill="#fff" opacity="0.2"/><ellipse cx="338.1" cy="254.77" rx="7.45" ry="8.55" fill="#233554"/><path d="M375.14,343.41c-7,3.38-13.8-3.14-13.8-3.14L355.64,308s-3.95-18.41-1.32-34.19c0,0,7,21.48,9.65,43.4C364,317.23,366.33,334.51,375.14,343.41Z" fill="#fff" opacity="0.2"/><path d="M260.11,433a.49.49,0,0,1-.49-.46L259,424a.5.5,0,0,1,.46-.54.48.48,0,0,1,.54.46l.66,8.59a.49.49,0,0,1-.46.53Z" fill="#f7a48b"/><rect x="263.12" y="426.73" width="1" height="12" rx="0.5" fill="#f7a48b"/><path d="M267.13,442.68h0a.51.51,0,0,1-.48-.52l.43-11a.52.52,0,0,1,.52-.48.5.5,0,0,1,.48.52l-.43,11A.5.5,0,0,1,267.13,442.68Z" fill="#f7a48b"/></svg>